<svg width="20" height="20" viewBox="0 0 20 20" fill="none" xmlns="http://www.w3.org/2000/svg">
<g id="Group">
<path id="Vector" fill-rule="evenodd" clip-rule="evenodd" d="M6.00297 15.1468V12.1792C6.65027 12.0359 7.52537 11.698 8.34059 10.9039C9.39888 9.874 10.0052 8.3539 10.0052 6.73369V2.11366C10.0052 2.08026 10.0022 2.04428 9.99666 1.9993C9.99849 1.97553 10.0052 1.95369 10.0052 1.92992C10.0052 0.662971 7.48858 0 5.0026 0C2.51662 0 0 0.66302 0 1.92992C0 1.95433 0.0067174 1.97682 0.00854945 2.00059C0.00427472 2.03785 0 2.07511 0 2.11366V6.73369C0 8.354 0.606394 9.87412 1.66462 10.9039C2.47985 11.698 3.35487 12.0359 4.00224 12.1792V15.1468C1.82704 15.3845 0.333298 16.3469 0.333298 17.5438C0.333298 18.9206 2.3839 20 5.00245 20C7.621 20 9.6716 18.9207 9.6716 17.5438C9.6716 16.3469 8.17729 15.3844 6.00266 15.1468H6.00297ZM5.0027 0.701489C7.60905 0.701489 9.33839 1.44097 9.33839 1.9299C9.33656 1.93761 9.33167 1.94468 9.33045 1.95303C9.31824 2.04683 9.24923 2.14834 9.12832 2.25049C9.12587 2.25178 9.12282 2.25435 9.12099 2.25627C9.08679 2.28454 9.04832 2.31281 9.00618 2.34044C8.38697 2.75033 6.93729 3.15767 5.00269 3.15767C3.06809 3.15767 1.61843 2.75033 0.999202 2.34044C0.957066 2.31281 0.918594 2.28454 0.884395 2.25627C0.882563 2.25435 0.87951 2.25178 0.877067 2.25049C0.756154 2.14834 0.687156 2.04683 0.674321 1.95303C0.67371 1.94532 0.669436 1.93954 0.667604 1.93182C0.667604 1.93118 0.666993 1.93054 0.666993 1.9299C0.666993 1.44097 2.39634 0.701489 5.0027 0.701489ZM2.33475 5.61378H4.00249V4.21064H6.01041L6.00491 5.61378H7.67078V7.71787L6.00913 7.7243V10.8769H4.00246V7.72052L2.33472 7.72694L2.33475 5.61378Z" fill="white"/>
<path id="Vector_2" fill-rule="evenodd" clip-rule="evenodd" d="M19.1694 7.75562C18.6198 7.1774 17.8473 6.87158 16.9362 6.87158C15.9854 6.87158 14.9491 7.20053 13.9506 7.79161C15.4223 8.02868 17.1676 8.84076 17.5315 10.8876C17.5651 11.0778 17.446 11.2609 17.2653 11.2969C17.2445 11.3007 17.2237 11.3027 17.2036 11.3027C17.046 11.3027 16.9056 11.1851 16.8756 11.0161C16.4695 8.73144 13.9518 8.44625 13.0308 8.41927C12.654 8.71223 12.2883 9.04183 11.9414 9.40547C11.9139 9.43502 11.8895 9.46586 11.862 9.49541C13.0644 9.60528 15.1475 10.1096 15.851 12.2401C15.912 12.4232 15.8198 12.623 15.6458 12.6866C15.6097 12.7001 15.5725 12.7065 15.5365 12.7065C15.3985 12.7065 15.269 12.6153 15.2214 12.4701C14.5356 10.3943 12.0996 10.183 11.291 10.1713C11.023 10.5176 10.7836 10.8722 10.5753 11.2333C11.5835 11.3033 13.5652 11.7383 14.1892 14.0125C14.2399 14.1989 14.1379 14.3929 13.9609 14.4468C13.9297 14.4558 13.8992 14.461 13.868 14.461C13.7233 14.461 13.5902 14.3608 13.548 14.2072C12.9551 12.0459 10.8349 11.9123 10.2132 11.9214C9.29961 13.8842 9.29169 15.872 10.3732 17.0098C10.9234 17.5887 11.6959 17.8945 12.607 17.8945C14.2258 17.8945 16.0933 16.9468 17.601 15.3606C20.0266 12.8087 20.7301 9.39785 19.1692 7.75576" fill="white"/>
</g>
</svg>
