<svg width="29" height="28" viewBox="0 0 29 28" fill="none" xmlns="http://www.w3.org/2000/svg">
<g clip-path="url(#clip0_2242_8746)">
<path d="M17.4824 15.8166C14.5901 18.7085 12.6804 23.192 14.9283 25.4399C17.298 27.8097 21.9434 25.4938 24.5516 22.8856C26.1483 21.289 27.3038 19.4334 27.8059 17.6604C28.3321 15.8017 28.0835 14.2398 27.1058 13.2622C24.7108 10.8673 20.0854 13.2136 17.4824 15.8166ZM26.9893 17.4295C26.5266 19.0651 25.4477 20.7898 23.9517 22.2857C21.6049 24.6324 17.4216 26.7335 15.5281 24.84C14.1875 23.499 14.9453 20.9852 15.8728 19.3126C16.8068 19.8969 18.3352 21.101 18.5765 22.8324C18.609 23.0667 18.8272 23.2271 19.055 23.1939C19.2875 23.1615 19.449 22.9472 19.4167 22.7151C19.1328 20.6772 17.4912 19.3168 16.3131 18.5875C16.7495 17.9203 17.2696 17.2683 17.861 16.6502C18.7792 17.1533 20.7163 18.4358 20.989 20.4193C21.0209 20.653 21.2368 20.8136 21.4667 20.7818C21.6991 20.7499 21.8611 20.5359 21.8292 20.3037C21.5265 18.0997 19.584 16.672 18.4852 16.0297C19.1612 15.4045 19.8772 14.8659 20.6 14.4273C21.6264 15.0439 23.1616 16.2442 23.4011 18.0062C23.433 18.2404 23.6492 18.4011 23.8788 18.3694C24.1108 18.3379 24.2736 18.1241 24.2421 17.8919C23.9874 16.0202 22.5758 14.7201 21.4466 13.9618C23.0049 13.1931 25.2758 12.6322 26.5058 13.8622C27.2561 14.6126 27.4281 15.8796 26.9893 17.4295Z" fill="#5B5B5B" stroke="#5B5B5B" stroke-width="0.2"/>
<path d="M7.89539 16.9838V23.4469L3.43796 25.6015C3.25982 25.6877 3.16492 25.8853 3.20925 26.0782C3.25316 26.271 3.42511 26.4078 3.62272 26.4078H13.0165C13.0194 26.4078 13.0227 26.408 13.0248 26.4078C13.2593 26.4078 13.4491 26.2178 13.4491 25.9835C13.4491 25.7952 13.3268 25.6357 13.157 25.5802L8.74388 23.4469V16.9838C11.2569 16.8704 13.5621 15.7537 15.1199 13.8775C16.7453 11.9166 14.6729 5.91922 13.2933 2.51888C13.06 1.94445 12.5074 1.57324 11.8851 1.57324H4.75417C4.13189 1.57324 3.57923 1.94445 3.34599 2.51888C1.96635 5.91944 -0.105948 11.9168 1.51932 13.8777C3.07714 15.7537 5.38273 16.8704 7.89539 16.9838ZM5.47505 25.5593L8.31963 24.1844L11.1642 25.5593H5.47505ZM14.467 13.3358C12.9838 15.122 10.7433 16.1466 8.31963 16.1466C5.8964 16.1466 3.65547 15.1221 2.17228 13.336C1.52946 12.5602 1.69819 10.643 2.27159 8.36939H14.3679C14.9413 10.6429 15.1101 12.5601 14.467 13.3358ZM4.13232 2.83787C4.23465 2.58515 4.47909 2.42168 4.75417 2.42168H11.8851C12.1602 2.42168 12.4046 2.58515 12.5069 2.83787C13.1273 4.36645 13.7073 5.99801 14.1393 7.52091H2.50017C2.93214 5.99801 3.51199 4.3665 4.13232 2.83787Z" fill="#5B5B5B" stroke="#5B5B5B" stroke-width="0.2"/>
<path d="M13.1907 9.26915C13.1393 9.04065 12.9119 8.89692 12.684 8.94808C12.4553 8.99925 12.3116 9.2263 12.3629 9.45475C12.5299 10.2001 12.6372 10.8621 12.6724 11.3697C12.7031 11.8072 12.5328 12.2357 12.2171 12.5162C11.473 13.1768 10.5409 13.6324 9.52085 13.8333C9.29091 13.8784 9.14136 14.1015 9.1865 14.3315C9.2263 14.5337 9.40401 14.6737 9.60247 14.6737C9.62941 14.6737 9.65716 14.6712 9.6849 14.6656C10.8532 14.4357 11.9234 13.9116 12.7806 13.1505C13.2918 12.6966 13.5677 12.0087 13.5192 11.3104C13.4803 10.7534 13.3697 10.0665 13.1907 9.26915Z" fill="#5B5B5B"/>
</g>
<defs>
<clipPath id="clip0_2242_8746">
<rect width="28" height="28" fill="white" transform="translate(0.5)"/>
</clipPath>
</defs>
</svg>
