<svg width="29" height="29" viewBox="0 0 29 29" fill="none" xmlns="http://www.w3.org/2000/svg">
<rect width="29" height="29" rx="14.5" fill="url(#paint0_linear_1664_4726)"/>
<path d="M8.16699 22.0209L8.95866 22.0209L8.95866 11.7292L8.16699 11.7292C7.74707 11.7292 7.34434 11.896 7.04741 12.193C6.75047 12.4899 6.58366 12.8926 6.58366 13.3125L6.58366 20.4375C6.58366 20.8575 6.75047 21.2602 7.04741 21.5571C7.34434 21.8541 7.74706 22.0209 8.16699 22.0209ZM20.8337 11.7292L15.292 11.7292L16.1802 9.06288C16.2595 8.82491 16.2811 8.57152 16.2432 8.32358C16.2054 8.07564 16.1092 7.84024 15.9625 7.63676C15.8159 7.43329 15.623 7.26757 15.3997 7.15325C15.1765 7.03892 14.9293 6.97927 14.6785 6.97921L14.5003 6.97921L10.542 11.2843L10.542 22.0209L19.2503 22.0209L22.3671 15.1737L22.417 14.9418L22.417 13.3125C22.417 12.8926 22.2502 12.4899 21.9532 12.193C21.6563 11.896 21.2536 11.7292 20.8337 11.7292Z" fill="white"/>
<defs>
<linearGradient id="paint0_linear_1664_4726" x1="6.59091" y1="-13.8409" x2="14.5" y2="29" gradientUnits="userSpaceOnUse">
<stop stop-color="#F2A374"/>
<stop offset="0.285" stop-color="#9ABFE4"/>
<stop offset="0.525" stop-color="#ED9385"/>
<stop offset="0.68" stop-color="#F1A275"/>
<stop offset="0.78" stop-color="#EF9F7B"/>
<stop offset="0.91" stop-color="#EC8884"/>
</linearGradient>
</defs>
</svg>
