<svg width="29" height="28" viewBox="0 0 29 28" fill="none" xmlns="http://www.w3.org/2000/svg">
<path d="M25.875 7.4375V24.507C25.875 24.8532 25.7375 25.1853 25.4926 25.4301C25.2478 25.675 24.9157 25.8125 24.5695 25.8125H10.118C9.77176 25.8125 9.4397 25.675 9.19487 25.4301C8.95004 25.1853 8.8125 24.8532 8.8125 24.507M8.8125 16.4062V5.6875" stroke="#5B5B5B" stroke-linecap="round" stroke-linejoin="round"/>
<path d="M5.09735 15.0601C5.06753 14.5768 5.16365 14.0941 5.3763 13.6591C5.58896 13.2242 5.91086 12.8518 6.31054 12.5786C6.31054 12.5786 8.27141 16.1074 9.83985 17.6763M25.8751 7.4375H10.5626C10.0985 7.4375 9.65335 7.25313 9.32517 6.92494C8.99698 6.59675 8.8126 6.15163 8.8126 5.6875C8.8126 5.22337 8.99698 4.77825 9.32517 4.45006C9.65335 4.12187 10.0985 3.9375 10.5626 3.9375H25.8751C24.504 5.05181 24.6177 6.22256 25.8751 7.4375ZM20.1876 13.125H18.4376V11.8125C18.4376 11.5804 18.3454 11.3579 18.1813 11.1938C18.0172 11.0297 17.7947 10.9375 17.5626 10.9375C17.3305 10.9375 17.108 11.0297 16.9439 11.1938C16.7798 11.3579 16.6876 11.5804 16.6876 11.8125V13.125H14.9376C14.7055 13.125 14.483 13.2172 14.3189 13.3813C14.1548 13.5454 14.0626 13.7679 14.0626 14C14.0626 14.2321 14.1548 14.4546 14.3189 14.6187C14.483 14.7828 14.7055 14.875 14.9376 14.875H16.6876V21C16.6876 21.2321 16.7798 21.4546 16.9439 21.6187C17.108 21.7828 17.3305 21.875 17.5626 21.875C17.7947 21.875 18.0172 21.7828 18.1813 21.6187C18.3454 21.4546 18.4376 21.2321 18.4376 21V14.875H20.1876C20.4197 14.875 20.6422 14.7828 20.8063 14.6187C20.9704 14.4546 21.0626 14.2321 21.0626 14C21.0626 13.7679 20.9704 13.5454 20.8063 13.3813C20.6422 13.2172 20.4197 13.125 20.1876 13.125Z" stroke="#5B5B5B" stroke-linecap="round" stroke-linejoin="round"/>
<path d="M10.5984 17.3096L10.8574 17.0501C11.3445 16.5632 11.9852 16.26 12.6706 16.1922C13.356 16.1244 14.0438 16.2961 14.6168 16.6783L14.9375 16.8918C14.9375 16.8918 13.4351 19.3676 12.4131 21.4116C10.6465 24.9448 7.48687 25.1264 3.95625 21.9895C2.87066 21.0503 2.11853 19.7848 1.8125 18.3823C1.8125 18.3823 3.17356 19.6366 4.74375 19.6366C3.95065 18.8998 3.4384 17.9101 3.29474 16.837C3.15107 15.764 3.38493 14.6744 3.95625 13.7549C3.95625 13.7549 6.0125 16.6927 8.0915 17.7361C8.3458 17.8608 8.62217 17.934 8.90481 17.9518C9.18746 17.9695 9.47082 17.9313 9.73869 17.8394C10.0626 17.7321 10.357 17.5507 10.5984 17.3096Z" stroke="#5B5B5B" stroke-linecap="round" stroke-linejoin="round"/>
<path d="M5.96875 3.0625C6.57281 3.0625 7.0625 2.57281 7.0625 1.96875C7.0625 1.36469 6.57281 0.875 5.96875 0.875C5.36469 0.875 4.875 1.36469 4.875 1.96875C4.875 2.57281 5.36469 3.0625 5.96875 3.0625Z" stroke="#5B5B5B" stroke-linecap="round" stroke-linejoin="round"/>
<path d="M14.0625 2.1875C14.3041 2.1875 14.5 1.99162 14.5 1.75C14.5 1.50838 14.3041 1.3125 14.0625 1.3125C13.8209 1.3125 13.625 1.50838 13.625 1.75C13.625 1.99162 13.8209 2.1875 14.0625 2.1875Z" fill="#5B5B5B"/>
<path d="M4.43757 6.76514V7.3842M4.43757 9.24095V9.86001M2.89014 8.31257H3.5092M5.36595 8.31257H5.98501" stroke="#5B5B5B" stroke-linecap="round" stroke-linejoin="round"/>
</svg>
