<svg width="24" height="25" viewBox="0 0 24 25" fill="none" xmlns="http://www.w3.org/2000/svg">
<g id="ic:round-send">
<path id="Vector" d="M3.4 20.4775L20.85 12.9975C21.0304 12.9207 21.1842 12.7925 21.2923 12.6289C21.4004 12.4654 21.4581 12.2736 21.4581 12.0775C21.4581 11.8815 21.4004 11.6897 21.2923 11.5261C21.1842 11.3626 21.0304 11.2344 20.85 11.1575L3.4 3.67754C3.2489 3.61163 3.08377 3.58438 2.91951 3.59824C2.75525 3.6121 2.59702 3.66664 2.4591 3.75693C2.32118 3.84722 2.20791 3.97043 2.1295 4.11544C2.0511 4.26045 2.01003 4.42269 2.01 4.58754L2 9.19754C2 9.69754 2.37 10.1275 2.87 10.1875L17 12.0775L2.87 13.9575C2.37 14.0275 2 14.4575 2 14.9575L2.01 19.5675C2.01 20.2775 2.74 20.7675 3.4 20.4775Z" fill="#898A8D" style="fill:#898A8D;fill:color(display-p3 0.5373 0.5412 0.5529);fill-opacity:1;"/>
</g>
</svg>
