<svg width="24" height="24" viewBox="0 0 24 24" fill="none" xmlns="http://www.w3.org/2000/svg">
<g id="ic:round-send">
<path id="Vector" d="M3.4 20.4L20.85 12.92C21.0304 12.8432 21.1842 12.715 21.2923 12.5514C21.4004 12.3879 21.4581 12.1961 21.4581 12C21.4581 11.804 21.4004 11.6122 21.2923 11.4486C21.1842 11.2851 21.0304 11.1569 20.85 11.08L3.4 3.60003C3.2489 3.53412 3.08377 3.50687 2.91951 3.52073C2.75525 3.53459 2.59702 3.58912 2.4591 3.67942C2.32118 3.76971 2.20791 3.89292 2.1295 4.03793C2.0511 4.18293 2.01003 4.34518 2.01 4.51003L2 9.12003C2 9.62003 2.37 10.05 2.87 10.11L17 12L2.87 13.88C2.37 13.95 2 14.38 2 14.88L2.01 19.49C2.01 20.2 2.74 20.69 3.4 20.4Z" fill="#898A8D"/>
</g>
</svg>
