<svg width="21" height="20" viewBox="0 0 21 20" fill="none" xmlns="http://www.w3.org/2000/svg">
<g id="Group">
<path id="Vector" d="M20.4919 18.9943C20.4919 18.8567 20.428 18.7192 20.3138 18.6352C15.5074 15.1459 15.4823 14.6364 14.9665 14.9709C14.871 14.877 14.3272 14.6146 14.2001 13.9119C13.5895 10.51 12.8955 9.25715 12.3043 4.81171C12.1771 3.84658 10.7046 3.98063 10.7491 4.94293L10.9337 9.54478C10.4345 9.9977 10.7462 10.148 10.6507 15.5619C10.6507 17.327 12.1965 17.9923 12.2281 18.0233C12.0593 18.2484 12.1326 18.5482 12.3646 18.6823L14.5914 19.9352C14.7918 20.0474 14.5756 19.9761 20.0306 19.9945C20.6793 19.991 20.4537 19.1754 20.4918 18.9941L20.4919 18.9943ZM10.9554 15.5579C11.0574 10.4065 10.742 10.0382 11.1809 9.72846C11.5056 9.48506 12.0272 9.64733 12.0968 10.0974C12.7275 13.9805 12.5616 14.2647 12.8547 14.2239C12.9373 14.2112 12.9947 14.1364 12.9854 14.0553C12.3396 10.1004 12.5465 9.89722 12.1105 9.52246C11.8684 9.31646 11.525 9.26636 11.2391 9.36655C11.1975 5.18371 10.7622 4.6278 11.4108 4.45568C11.4015 5.01161 11.6587 5.68959 12.1457 5.83351C12.7089 9.53233 13.3417 10.8412 13.9049 13.9622C14.0478 14.7806 14.6749 15.1087 14.7511 15.1834L12.4324 17.7825C12.3778 17.7388 10.9555 17.1674 10.9555 15.5582L10.9554 15.5579Z" fill="#FBFAFA"/>
<path id="Vector_2" d="M10.0683 9.53666L10.2529 4.93481C10.291 4.12915 9.33702 4.10728 9.41317 4.1383C8.1726 4.7034 9.26663 3.83494 7.57494 10.4581C6.649 14.085 6.92629 14.2911 6.2453 14.8067L6.03194 14.9662C5.51976 14.6317 5.47524 15.1503 0.684674 18.6305C0.573331 18.7151 0.506526 18.852 0.506526 18.9896C0.541725 19.149 0.331253 19.9864 0.967696 19.9864C6.38466 19.9646 6.21015 20.033 6.40691 19.9272C8.56693 18.646 8.79607 18.7243 8.85638 18.3525C8.87865 18.2305 8.84345 18.1119 8.77377 18.0153C8.80538 17.9842 10.3484 17.3218 10.3484 15.5538C10.2586 10.1771 10.5675 9.99305 10.0683 9.53666ZM10.0424 15.5566C10.0424 17.1595 8.61438 17.7402 8.57271 17.781L6.25399 15.1819C6.3366 15.0972 6.95078 14.7819 7.10307 13.9607C7.67558 10.7804 8.28975 9.57175 8.85868 5.83194C9.35505 5.68802 9.60289 4.99804 9.59354 4.45411C10.2422 4.62625 9.80977 5.20052 9.76882 9.36498C9.25663 9.19002 8.68701 9.48703 8.59793 10.0521C8.11736 13.8667 7.82787 14.2258 8.16837 14.2258C8.42624 14.2258 8.26678 14.0818 8.90323 10.0958C9.0117 9.41504 10.0454 9.49265 10.0454 10.177L10.0461 15.5563L10.0424 15.5566Z" fill="#FBFAFA"/>
<path id="Vector_3" d="M10.6535 0.149745C10.6535 -0.0499151 10.3446 -0.0499151 10.3446 0.149745C10.3985 1.60236 10.2174 1.98055 10.4976 1.98055C10.7835 1.97702 10.5989 1.58688 10.6535 0.149745Z" fill="#FBFAFA"/>
<path id="Vector_4" d="M7.12565 3.04833C7.37349 2.92981 7.05238 2.67653 6.48346 1.39253C6.39438 1.21122 6.11782 1.34244 6.2069 1.52375C6.76002 2.46701 6.84262 3.18238 7.12565 3.04833Z" fill="#FBFAFA"/>
<path id="Vector_5" d="M4.66749 5.96327C4.82337 5.74174 4.42254 5.67614 3.39173 4.9135C3.22292 4.80132 3.05123 5.04754 3.21645 5.16042C4.50228 6.02253 4.54682 6.13541 4.66749 5.96327Z" fill="#FBFAFA"/>
<path id="Vector_6" d="M3.6172 10.0743C3.82049 10.0743 3.82049 9.77094 3.6172 9.77094C2.44057 9.82103 2.03613 9.65524 2.03613 9.92121C2.03901 10.1928 2.41111 10.0242 3.6172 10.0743Z" fill="#FBFAFA"/>
<path id="Vector_7" d="M17.38 9.77497C17.1767 9.77497 17.1767 10.0783 17.38 10.0783C18.5566 10.0282 18.9611 10.194 18.9611 9.92807C18.9611 9.65575 18.589 9.82436 17.38 9.77497Z" fill="#FBFAFA"/>
<path id="Vector_8" d="M16.5479 5.99991C17.5019 5.29371 17.9825 5.17801 17.8237 4.95014C17.7763 4.8817 17.6807 4.86548 17.6103 4.91275C16.6564 5.61895 16.1758 5.73465 16.3346 5.96252C16.3633 6.00344 16.4775 6.04718 16.5479 5.99991Z" fill="#FBFAFA"/>
<path id="Vector_9" d="M13.939 3.06384C14.12 3.06384 14.0884 2.88253 14.7917 1.52376C14.8807 1.34245 14.6042 1.21122 14.5151 1.39254C13.9864 2.58269 13.541 3.06384 13.939 3.06384Z" fill="#FBFAFA"/>
<path id="Vector_10" d="M8.71922 2.25503C8.81763 2.25503 8.8909 2.16473 8.86863 2.0709C8.58849 1.06839 8.67109 0.671203 8.40387 0.727643C8.32127 0.746691 8.27026 0.827823 8.28607 0.908953C8.57916 2.00177 8.50012 2.25503 8.71922 2.25503Z" fill="#FBFAFA"/>
<path id="Vector_11" d="M5.77464 4.285C5.98152 4.11639 5.6123 3.93508 5.03044 3.17315C4.89971 3.02006 4.66481 3.21407 4.79484 3.36716C5.52611 4.19753 5.59937 4.42893 5.77464 4.285Z" fill="#FBFAFA"/>
<path id="Vector_12" d="M17.0666 11.896C17.0415 11.9743 17.086 12.0618 17.165 12.0865C18.0651 12.368 18.0335 12.368 18.078 12.368C18.2533 12.368 18.2914 12.1274 18.1254 12.0745C17.4574 11.9087 17.1456 11.6526 17.0666 11.896Z" fill="#FBFAFA"/>
<path id="Vector_13" d="M2.82581 7.56547C3.66841 7.78135 3.98016 8.04944 4.06351 7.79687C4.14611 7.54712 3.73235 7.58451 2.91847 7.27833C2.72739 7.21554 2.63472 7.5027 2.82581 7.56547Z" fill="#FBFAFA"/>
<path id="Vector_14" d="M17.261 7.83741C17.8845 7.59685 18.3076 7.62153 18.225 7.37531C18.1453 7.12839 17.8113 7.39083 17.1655 7.55028C16.9744 7.60954 17.0635 7.90021 17.261 7.83741Z" fill="#FBFAFA"/>
<path id="Vector_15" d="M2.82565 12.0699C2.63456 12.1292 2.72364 12.4199 2.92119 12.3571C3.73578 12.0509 4.14883 12.0883 4.06622 11.8385C3.98361 11.5888 3.66538 11.8548 2.82565 12.0699Z" fill="#FBFAFA"/>
<path id="Vector_16" d="M15.5263 4.11393C15.9687 3.52343 16.3437 3.32377 16.1404 3.15516C15.9371 2.98655 15.8093 3.37669 15.2914 3.92062C15.1577 4.07301 15.3963 4.26703 15.5263 4.11393Z" fill="#FBFAFA"/>
<path id="Vector_17" d="M12.2824 2.04293C12.4986 2.04293 12.4224 1.78331 12.6638 0.90567C12.7083 0.708846 12.4095 0.646049 12.365 0.84006L12.1329 1.85879C12.1107 1.95262 12.1832 2.04293 12.2824 2.04293Z" fill="#FBFAFA"/>
</g>
</svg>
