<svg width="32" height="36" viewBox="0 0 32 36" fill="none" xmlns="http://www.w3.org/2000/svg">
<g filter="url(#filter0_d_2241_7683)">
<path d="M8.23885 1.81386L7.70248 1.48442L7.61235 1.46824C7.2816 1.40786 6.88523 1.64717 6.62754 2.06324C6.43504 2.37299 6.15898 3.18542 6.77673 4.13086C7.02173 4.07049 7.04142 4.15142 7.29298 4.2888C6.86992 3.37661 7.01385 2.79561 7.12017 2.55411C7.2256 2.31567 7.49729 2.01905 7.57429 1.97267L8.14873 2.3988L8.23885 1.81386Z" fill="#5B5B5B" stroke="#5B5B5B" stroke-width="0.5"/>
<path d="M6.85523 4.1939L7.29317 4.2884C7.29579 4.1729 6.90336 3.70303 6.90336 3.70303L6.81804 3.68771C6.49911 3.62953 6.12986 3.84259 5.86998 4.22584C5.61579 4.60078 5.34498 5.84328 6.41773 6.97684L6.77342 7.01534C6.01961 5.8074 6.18148 5.0654 6.34554 4.73071C6.45098 4.51678 6.78479 4.2359 6.85523 4.1939ZM8.47004 12.0138C8.50329 11.529 8.53523 10.6632 8.47792 9.76153C8.12486 9.53534 7.96954 9.10965 8.01154 8.70321C7.98048 8.67871 7.94504 8.65903 7.91704 8.63146C7.99404 9.40146 8.13842 11.0578 8.04961 11.984C8.04654 12.0168 7.63398 12.404 7.16892 12.4543C7.43448 12.5606 7.64886 12.5436 7.80811 12.4872C8.05354 12.4005 8.32654 12.4592 8.48142 12.6678C8.98936 13.3508 10.1544 14.9686 10.2795 14.8973C10.4392 14.8063 8.84323 12.4338 8.47004 12.0138Z" fill="#5B5B5B" stroke="#5B5B5B" stroke-width="0.5"/>
<path d="M12.8781 24.6487C12.0342 24.1233 11.1614 23.5795 10.6517 22.7994C9.34969 20.807 8.61119 18.6274 8.21481 17.4566C8.14163 17.2359 8.06477 17.0164 7.98425 16.7982C7.84338 16.4294 7.56556 15.9263 7.24444 15.344C6.76931 14.483 6.23075 13.5069 6.11919 12.9101C5.97656 12.1471 6.06713 10.6977 6.1555 9.29683C6.20625 8.48177 6.25569 7.70652 6.25788 7.07302C6.4215 7.05858 7.10488 6.97589 7.52531 7.49389C7.55725 7.31583 7.5275 7.38714 7.636 7.24452C7.10138 6.47277 6.19006 6.31877 5.77838 6.51696C5.721 6.54397 5.67266 6.58701 5.6392 6.64089C5.60574 6.69476 5.58859 6.75717 5.58981 6.82058C5.60206 7.46896 5.54738 8.33652 5.48963 9.25527C5.39906 10.6968 5.30544 12.1883 5.46294 13.0331C5.59463 13.7353 7.45925 16.6665 7.5835 16.992C7.64344 17.1486 8.7455 21.1019 10.0934 23.1647C10.6836 24.0677 11.6199 24.6509 12.5259 25.2153C13.3821 25.7486 15.0389 27.118 15.0936 27.0843C15.2507 26.9871 13.7623 25.1991 12.8781 24.6487ZM21.7463 11.9638C21.7463 11.9638 20.4543 11.1978 20.0776 10.507C19.7009 9.81614 17.9273 6.39183 17.9273 6.39183C17.7929 6.09789 17.5937 5.83822 17.3446 5.63233L11.8211 0.874081C11.7761 0.835474 11.7216 0.809508 11.6632 0.798831C11.3338 0.739331 10.9361 0.977768 10.6779 1.39339C10.5546 1.59202 10.3905 1.95952 10.3896 2.48539C10.6347 2.53597 10.8682 2.63166 11.0783 2.76758C11.0179 2.33489 11.1028 2.03958 11.171 1.88427C11.276 1.64539 11.4221 1.52202 11.4987 1.47608L16.9158 6.14246C17.0882 6.28377 17.2282 6.46577 17.3306 6.68846C17.3306 6.68846 18.6702 9.41233 19.949 10.9086C20.5217 11.5771 21.0896 11.7473 21.7463 11.9638Z" fill="#5B5B5B" stroke="#5B5B5B" stroke-width="0.5"/>
<path d="M15.4848 6.4891C15.3502 6.19564 15.1512 5.93633 14.9025 5.73048L9.23815 0.826103C9.19292 0.786807 9.13789 0.7605 9.0789 0.749978C8.74815 0.690478 8.35178 0.92979 8.09409 1.34498C7.90115 1.6556 7.60672 2.37748 8.00222 3.48173C8.23409 3.43317 8.49265 3.4721 8.75647 3.65148C8.77878 3.66635 8.79978 3.68254 8.82078 3.69742C8.32203 2.71129 8.47559 2.08829 8.58715 1.83585C8.69215 1.59742 8.83828 1.47404 8.91484 1.42767L14.4733 6.23973C14.6461 6.38104 14.7861 6.56348 14.8963 6.79973C14.8963 6.79973 17.933 12.0979 18.4383 12.0327C18.6208 12.0095 15.4848 6.4891 15.4848 6.4891Z" fill="#5B5B5B" stroke="#5B5B5B" stroke-width="0.5"/>
<path d="M13.5677 8.32174C13.4721 8.1084 13.329 7.91971 13.1494 7.77006L8.1243 3.64574C8.05386 3.68774 7.91693 3.79843 7.81236 4.01281C7.6483 4.34749 7.48599 5.08949 8.24024 6.29743C8.26339 6.33455 8.27901 6.37586 8.2862 6.41901C8.29338 6.46216 8.292 6.5063 8.28213 6.54892C8.27226 6.59153 8.25409 6.63179 8.22866 6.66738C8.20323 6.70298 8.17104 6.73321 8.13393 6.75637C8.09681 6.77952 8.0555 6.79514 8.01235 6.80233C7.9692 6.80951 7.92506 6.80813 7.88244 6.79826C7.83982 6.78839 7.79957 6.77022 7.76397 6.74479C7.72838 6.71936 7.69814 6.68717 7.67499 6.65006C6.60705 4.93899 7.08261 3.88243 7.3368 3.50749C7.59711 3.12381 7.96899 2.91249 8.28486 2.96937C8.34078 2.97951 8.39319 3.00375 8.43711 3.03981L13.5725 7.25468C13.8242 7.46164 14.0257 7.72296 14.1618 8.01899C14.1618 8.01899 16.5016 12.4539 16.2828 12.4539C15.6563 12.4544 13.5677 8.32174 13.5677 8.32174Z" fill="#5B5B5B" stroke="#5B5B5B" stroke-width="0.5"/>
<path d="M15.4468 23.551C13.6531 21.871 12.0886 19.5978 11.3632 17.6185C11.2057 17.1884 10.4567 13.618 10.2428 13.1271C9.8967 12.3326 9.18183 11.5136 8.70845 10.7909C8.16158 9.95613 7.68952 9.23513 7.52239 8.62219C7.20739 7.46894 7.55827 6.58256 7.99095 6.13806C8.24602 5.87688 8.53433 5.76269 8.7837 5.82306C8.8335 5.83526 8.87982 5.85877 8.91904 5.89178C8.95827 5.92479 8.98936 5.9664 9.00989 6.01338C9.17089 6.25663 10.462 7.52756 11.1598 8.214C11.6633 8.71013 11.953 8.99538 12.0383 9.09338C12.3218 9.41888 12.576 9.97538 12.87 10.6194C13.157 11.2476 13.9497 12.9425 13.7957 13.044C13.6426 13.1446 12.5606 11.5464 12.2636 10.8963C12.0024 10.3241 11.7556 9.78375 11.5356 9.53131C11.463 9.44775 11.0889 9.07894 10.6921 8.68913C9.36952 7.38713 8.80427 6.81225 8.56058 6.51738C8.47338 6.58921 8.39795 6.67424 8.33702 6.76938C8.20314 6.97369 7.9192 7.54506 8.16508 8.44719C8.3042 8.95819 8.77145 9.67088 9.26583 10.4251C9.75364 11.1702 10.3071 12.0146 10.6755 12.8607C10.9104 13.3993 11.1847 14.4554 11.4498 15.4765C11.6515 16.2548 11.8423 16.9898 11.9884 17.3893C12.6805 19.2766 14.1798 21.4514 15.9018 23.0641C16.5817 23.7006 20.8189 26.3239 20.7725 26.5015C20.7375 26.6376 15.6301 23.7225 15.4468 23.551ZM24.0901 20.1853C23.7851 18.8733 23.3765 15.0863 23.3126 14.2594C23.2671 13.6561 21.49 10.7839 20.7314 9.55713C20.4278 9.06581 20.227 8.74119 20.1561 8.60688C20.0362 8.37806 19.8752 7.87188 19.6232 7.06469C19.4298 6.44431 19.2133 5.75131 19.0409 5.323C18.8556 5.34064 18.6792 5.41126 18.533 5.52644C18.2705 5.73819 17.9336 6.07156 17.7958 6.92644H17.7923C17.7485 6.92604 17.7052 6.917 17.6649 6.89984C17.6246 6.88269 17.5881 6.85775 17.5574 6.82645C17.5268 6.79516 17.5026 6.75813 17.4863 6.71748C17.47 6.67683 17.4619 6.63336 17.4624 6.58956C17.4725 5.63669 17.8771 5.16288 18.2149 4.93319C18.6546 4.63481 19.1726 4.61513 19.3874 4.69738C19.4687 4.72823 19.5345 4.78984 19.5707 4.86888C19.7715 5.30156 20.0196 6.09694 20.2598 6.86606C20.451 7.47769 20.6478 8.10988 20.7458 8.29669C20.8058 8.41 21.0228 8.76175 21.2984 9.20669C22.9158 11.8225 23.9286 13.5712 23.9776 14.2082C24.038 14.9896 24.4401 18.7048 24.7315 19.9981C24.8631 20.1976 27.0769 22.9893 26.9146 23.0754C26.8643 23.1026 24.1255 20.3389 24.0901 20.1853Z" fill="#5B5B5B" stroke="#5B5B5B" stroke-width="0.5"/>
</g>
<defs>
<filter id="filter0_d_2241_7683" x="-3.5" y="0" width="36" height="36" filterUnits="userSpaceOnUse" color-interpolation-filters="sRGB">
<feFlood flood-opacity="0" result="BackgroundImageFix"/>
<feColorMatrix in="SourceAlpha" type="matrix" values="0 0 0 0 0 0 0 0 0 0 0 0 0 0 0 0 0 0 127 0" result="hardAlpha"/>
<feOffset dy="4"/>
<feGaussianBlur stdDeviation="2"/>
<feComposite in2="hardAlpha" operator="out"/>
<feColorMatrix type="matrix" values="0 0 0 0 0 0 0 0 0 0 0 0 0 0 0 0 0 0 0.25 0"/>
<feBlend mode="normal" in2="BackgroundImageFix" result="effect1_dropShadow_2241_7683"/>
<feBlend mode="normal" in="SourceGraphic" in2="effect1_dropShadow_2241_7683" result="shape"/>
</filter>
</defs>
</svg>
