<svg width="21" height="20" viewBox="0 0 21 20" fill="none" xmlns="http://www.w3.org/2000/svg">
<g id="noun-horn-4944644 1" clipPath="url(#clip0_1332_6029)">
<g id="Group">
<path id="Vector" d="M6.7813 14.8712C7.03338 16.2658 7.66142 17.4791 8.6502 18.4802C8.87481 18.3893 9.10186 18.2929 9.32953 18.1903C8.31086 17.1954 7.60156 15.9448 7.21766 14.4659C7.07544 14.6045 6.93023 14.7399 6.7813 14.8712Z" fill="white"/>
<path id="Vector_2" d="M11.7471 6.63086C12.0614 6.79993 12.369 6.97755 12.6693 7.16247L12.4447 6.23291L11.7471 6.63086Z" fill="white"/>
<path id="Vector_3" d="M4.72117 16.3547C4.64854 17.5034 5.00376 18.5294 5.77768 19.4064C6.57664 19.2105 7.43362 18.9517 8.32034 18.6099C7.38345 17.6266 6.77065 16.4535 6.49471 15.1169C5.94296 15.5765 5.35335 15.9879 4.72096 16.3547L4.72117 16.3547ZM6.15854 17.8379C5.93149 17.8922 5.70321 17.7518 5.6489 17.5241C5.59459 17.2965 5.73496 17.0682 5.96262 17.0139C6.18967 16.9596 6.41795 17.1 6.47226 17.3276C6.52597 17.5553 6.38559 17.7836 6.15854 17.8379Z" fill="white"/>
<path id="Vector_4" d="M13.8393 10.2526C12.9775 9.51954 12.0332 8.88051 11.0299 8.35132C10.7998 8.98426 10.5392 9.60619 10.2432 10.2001C9.45704 11.776 8.55254 13.0962 7.48926 14.1937C7.85609 15.7415 8.58301 17.0349 9.65113 18.0426C10.5355 17.6269 11.4364 17.124 12.3294 16.5155C13.8632 15.4699 15.1896 14.1961 16.3107 12.8852C15.5654 11.9001 14.7347 11.015 13.8394 10.2527L13.8393 10.2526Z" fill="white"/>
<path id="Vector_5" d="M4.38566 16.5437C4.23612 16.6249 4.08414 16.7036 3.92972 16.7805C3.86868 17.8065 4.16409 18.7618 4.80801 19.6211C5.00698 19.5821 5.21084 19.5387 5.41898 19.4917C4.70853 18.6305 4.36247 17.641 4.38566 16.5437Z" fill="white"/>
<path id="Vector_6" d="M1.02524 17.8797C0.652318 17.9847 0.430146 18.3619 0.519865 18.7397L0.688318 19.4471C0.765832 19.7742 1.06491 20.0062 1.39999 20.0001C1.47384 19.9988 1.5538 19.9964 1.63741 19.994C1.36215 19.3067 1.19246 18.5877 1.13204 17.8491C1.09664 17.8589 1.06125 17.8693 1.02524 17.8797Z" fill="white"/>
<path id="Vector_7" d="M12.2163 3.80432C12.1736 4.04296 12.1272 4.28773 12.0771 4.53674L13.0824 4.18092C12.7974 4.04908 12.5087 3.92335 12.2163 3.80432Z" fill="white"/>
<path id="Vector_8" d="M1.4541 17.753C1.50903 18.5209 1.68787 19.2679 1.98571 19.9771C2.17004 19.9673 2.37146 19.9533 2.58691 19.935C2.21704 19.1922 2.02845 18.3981 2.02601 17.5681C1.83863 17.6322 1.6482 17.6938 1.4541 17.753Z" fill="white"/>
<path id="Vector_9" d="M3.59501 16.9406C3.19706 17.1255 2.78446 17.2958 2.35538 17.452C2.33952 18.3157 2.53543 19.1384 2.93888 19.902C3.39298 19.855 3.90079 19.7861 4.45134 19.6878C3.86052 18.8486 3.57365 17.9268 3.59501 16.9406Z" fill="white"/>
<path id="Vector_10" d="M14.6868 9.04297C13.7359 8.219 12.6671 7.49084 11.5087 6.875C11.3964 7.26319 11.2743 7.65259 11.1406 8.03955C12.1813 8.58398 13.1603 9.24377 14.052 10.003C14.948 10.7653 15.78 11.6478 16.5277 12.6281C16.7626 12.3462 16.9879 12.0636 17.2039 11.781C16.4623 10.7684 15.6157 9.84734 14.6868 9.04297Z" fill="white"/>
<path id="Vector_11" d="M18.974 9.18579C19.0601 9.04357 19.1437 8.90441 19.2242 8.76647C19.129 8.65966 19.0326 8.55407 18.9355 8.45032L18.974 9.18579Z" fill="white"/>
<path id="Vector_12" d="M17.0327 6.66321C16.6726 6.3678 16.3033 6.08704 15.9268 5.82275C15.8651 5.77942 15.8035 5.7373 15.7412 5.69458L16.0482 6.98547L17.0327 6.66321Z" fill="white"/>
<path id="Vector_13" d="M17.5488 7.10205L17.597 8.08777L18.4192 7.91686C18.1354 7.63549 17.8455 7.36327 17.5488 7.10205Z" fill="white"/>
<path id="Vector_14" d="M20.1735 4.58497C19.5803 3.5608 18.8125 2.67513 17.8915 1.9531C16.8533 1.1389 15.5782 0.499239 14.1012 0.051848C13.7649 -0.0500801 13.4054 0.00301988 13.1137 0.197721C12.8225 0.391815 12.6357 0.703097 12.6003 1.0516C12.5814 1.2408 12.5588 1.44588 12.5332 1.66378C14.0347 2.24178 15.4299 3.02182 16.6812 3.98488C17.9007 4.9236 19.0163 6.06066 19.9996 7.36628C20.0863 7.19966 20.1675 7.04036 20.2425 6.88899C20.6094 6.15352 20.5837 5.29232 20.1735 4.58497Z" fill="white"/>
<path id="Vector_15" d="M16.4812 4.24437C15.2757 3.31664 13.9347 2.56218 12.4919 1.9989C12.4346 2.44812 12.3632 2.94495 12.2734 3.47412C13.6388 4.02343 14.9309 4.72229 16.1163 5.55474C17.293 6.38117 18.3959 7.36084 19.3975 8.46803C19.5531 8.19642 19.6972 7.93518 19.8302 7.68739C18.8415 6.35254 17.7154 5.19468 16.4812 4.24437Z" fill="white"/>
<path id="Vector_16" d="M13.3193 7.58228C13.7002 7.84045 14.0682 8.11206 14.4222 8.39588L14.2404 7.3418L13.3193 7.58228Z" fill="white"/>
<path id="Vector_17" d="M17.4751 8.44773C17.4641 8.45017 17.4531 8.45139 17.4415 8.45139C17.4055 8.45139 17.3701 8.4398 17.3414 8.41721C17.3036 8.38792 17.2804 8.34336 17.2779 8.29575L17.2126 6.94993L15.9816 7.35336C15.9651 7.35886 15.9474 7.3613 15.9303 7.3613C15.9028 7.3613 15.8747 7.35397 15.8503 7.34055C15.8101 7.31796 15.7814 7.28012 15.771 7.23556L15.3669 5.5376L13.863 6.02892C13.8466 6.03442 13.8295 6.03686 13.8124 6.03686C13.7831 6.03686 13.7538 6.02892 13.7281 6.01366C13.6873 5.98925 13.6592 5.94897 13.6506 5.90197L13.3827 4.4231L11.9978 4.9126C11.9008 5.36486 11.7915 5.82935 11.667 6.29871L12.4714 5.83972C12.516 5.81409 12.5703 5.81103 12.6179 5.83179C12.6649 5.85254 12.7003 5.89343 12.7125 5.94409L13.0439 7.31554L14.3293 6.97986C14.3739 6.96826 14.4209 6.97558 14.4594 7.00061C14.4978 7.02563 14.524 7.0653 14.532 7.11047L14.7895 8.60583L16.0725 8.32324C16.1213 8.31225 16.172 8.32446 16.211 8.3562C16.2501 8.38732 16.2721 8.43493 16.2721 8.48498L16.2611 9.99254L17.458 9.83325C17.5062 9.82653 17.5544 9.84179 17.5905 9.87475C17.6265 9.90771 17.646 9.95409 17.6435 10.0029L17.5898 11.2639C17.9847 10.7219 18.3448 10.1879 18.6702 9.67391L18.5939 8.21639L17.4751 8.44773Z" fill="white"/>
<path id="Vector_18" d="M15.9352 9.77234L15.9431 8.68713L15.0117 8.89221C15.3297 9.17298 15.6379 9.46656 15.9352 9.77234Z" fill="white"/>
<path id="Vector_19" d="M17.2615 11.3098L17.3091 10.1831L16.4277 10.3003C16.7177 10.625 16.996 10.9619 17.2615 11.3098Z" fill="white"/>
<path id="Vector_20" d="M15.105 5.2782C14.6594 4.99989 14.201 4.73987 13.7305 4.49878L13.9404 5.65845L15.105 5.2782Z" fill="white"/>
</g>
</g>
<defs>
<clipPath id="clip0_1332_6029">
<rect width="20" height="20" fill="white" transform="translate(0.5)"/>
</clipPath>
</defs>
</svg>
