<svg width="17" height="17" viewBox="0 0 17 17" fill="none" xmlns="http://www.w3.org/2000/svg">
<path id="Vector" d="M2.16699 16.0209L2.95866 16.0209L2.95866 5.72921L2.16699 5.72921C1.74707 5.72921 1.34434 5.89602 1.04741 6.19296C0.750474 6.48989 0.583658 6.89261 0.583658 7.31254L0.583657 14.4375C0.583657 14.8575 0.750473 15.2602 1.04741 15.5571C1.34434 15.8541 1.74706 16.0209 2.16699 16.0209ZM14.8337 5.72921L9.29199 5.72921L10.1802 3.06288C10.2595 2.82491 10.2811 2.57152 10.2432 2.32358C10.2054 2.07564 10.1092 1.84024 9.96252 1.63676C9.81586 1.43329 9.62297 1.26757 9.39972 1.15325C9.17648 1.03892 8.92927 0.979273 8.67845 0.979208L8.50033 0.979208L4.54199 5.28429L4.54199 16.0209L13.2503 16.0209L16.3671 9.17375L16.417 8.94179L16.417 7.31254C16.417 6.89262 16.2502 6.48989 15.9532 6.19296C15.6563 5.89602 15.2536 5.72921 14.8337 5.72921Z" fill="white"/>
</svg>
