<svg width="24" height="25" viewBox="0 0 24 25" fill="none" xmlns="http://www.w3.org/2000/svg">
<g id="uil:exit">
<path id="Vector" d="M12.9428 13.5847L13.8008 12.7303H12.59H5C4.86739 12.7303 4.74022 12.6777 4.64645 12.5839C4.55268 12.4901 4.5 12.363 4.5 12.2303C4.5 12.0977 4.55268 11.9706 4.64645 11.8768C4.74022 11.783 4.86739 11.7303 5 11.7303H12.59H13.8008L12.9428 10.876L10.6436 8.58679C10.6434 8.58667 10.6433 8.58655 10.6432 8.58643C10.5966 8.5397 10.5595 8.48426 10.5343 8.42325C10.5089 8.3621 10.4959 8.29655 10.4959 8.23035C10.4959 8.16415 10.5089 8.0986 10.5343 8.03744C10.5596 7.97628 10.5967 7.92071 10.6436 7.8739C10.6904 7.82709 10.7459 7.78996 10.8071 7.76463C10.8683 7.73929 10.9338 7.72625 11 7.72625C11.0662 7.72625 11.1317 7.73929 11.1929 7.76463C11.2541 7.78996 11.3096 7.82709 11.3564 7.8739L15.3519 11.8694C15.396 11.9162 15.4306 11.9711 15.4538 12.0311L15.4537 12.0311L15.4575 12.0403C15.5075 12.1621 15.5075 12.2986 15.4575 12.4203L15.4574 12.4203L15.4538 12.4296C15.4306 12.4896 15.396 12.5445 15.3519 12.5913L11.3564 16.5868L11.355 16.5882C11.3085 16.6351 11.2532 16.6723 11.1923 16.6977C11.1314 16.7231 11.066 16.7361 11 16.7361C10.934 16.7361 10.8686 16.7231 10.8077 16.6977C10.7468 16.6723 10.6915 16.6351 10.645 16.5882L10.6421 16.5853C10.5952 16.5389 10.558 16.4836 10.5327 16.4226C10.5073 16.3617 10.4942 16.2964 10.4942 16.2303C10.4942 16.1643 10.5073 16.099 10.5327 16.0381C10.558 15.9771 10.5952 15.9218 10.6421 15.8753L10.6428 15.8747L12.9428 13.5847ZM7 2.73035H17C17.663 2.73035 18.2989 2.99374 18.7678 3.46258C19.2366 3.93142 19.5 4.56731 19.5 5.23035V19.2303C19.5 19.8934 19.2366 20.5293 18.7678 20.9981C18.2989 21.467 17.663 21.7303 17 21.7303H7C6.33696 21.7303 5.70107 21.467 5.23223 20.9981C4.76339 20.5293 4.5 19.8934 4.5 19.2303V16.2303C4.5 16.0977 4.55268 15.9706 4.64645 15.8768C4.74022 15.783 4.86739 15.7303 5 15.7303C5.13261 15.7303 5.25978 15.783 5.35355 15.8768C5.44732 15.9706 5.5 16.0977 5.5 16.2303V19.2303C5.5 19.6282 5.65804 20.0097 5.93934 20.291C6.22065 20.5723 6.60218 20.7303 7 20.7303H17C17.3978 20.7303 17.7794 20.5723 18.0607 20.291C18.342 20.0097 18.5 19.6282 18.5 19.2303V5.23035C18.5 4.83252 18.342 4.45099 18.0607 4.16969C17.7794 3.88838 17.3978 3.73035 17 3.73035H7C6.60217 3.73035 6.22064 3.88838 5.93934 4.16969C5.65804 4.45099 5.5 4.83252 5.5 5.23035V8.23035C5.5 8.36295 5.44732 8.49013 5.35355 8.5839C5.25978 8.67767 5.13261 8.73035 5 8.73035C4.86739 8.73035 4.74022 8.67767 4.64645 8.5839C4.55268 8.49013 4.5 8.36295 4.5 8.23035V5.23035C4.5 4.56731 4.76339 3.93142 5.23223 3.46258C5.70107 2.99374 6.33696 2.73035 7 2.73035Z" fill="#272727" stroke="#272727"/>
</g>
</svg>
