<svg width="29" height="28" viewBox="0 0 29 28" fill="none" xmlns="http://www.w3.org/2000/svg">
<path d="M22.3861 14.4856C22.3931 14.4244 22.387 14.3625 22.3684 14.3038C22.3497 14.2451 22.3188 14.1911 22.2777 14.1452C22.2366 14.0993 22.1863 14.0627 22.13 14.0376C22.0738 14.0126 22.0128 13.9998 21.9512 14H20.2012C20.1105 14 20.022 14.0282 19.948 14.0807C19.874 14.1332 19.8182 14.2075 19.7882 14.2931L19.6242 14.7691C19.1897 16.5069 18.4394 17.5551 17.4004 19.0068L17.1755 19.3213C17.0944 19.4345 16.9875 19.5268 16.8636 19.5904C16.7397 19.6541 16.6025 19.6874 16.4632 19.6875H16.4519C16.8853 19.2077 17.1254 18.5841 17.1256 17.9375C17.1256 16.4898 15.9483 15.3125 14.5006 15.3125C13.0529 15.3125 11.8756 16.4898 11.8756 17.9375C11.8756 18.6099 12.132 19.2224 12.5494 19.6875C12.4106 19.6871 12.2739 19.6538 12.1505 19.5904C12.0271 19.527 11.9204 19.4352 11.8393 19.3226L11.6127 19.005C10.5741 17.5547 9.82419 16.506 9.37881 14.7306L9.22569 14.2931C9.19574 14.2075 9.13991 14.1332 9.06591 14.0807C8.99192 14.0282 8.90342 14 8.81269 14H7.06269C7.00111 13.9998 6.94018 14.0126 6.88392 14.0376C6.82765 14.0627 6.77733 14.0993 6.73625 14.1452C6.69517 14.1911 6.66426 14.2451 6.64557 14.3038C6.62688 14.3625 6.62083 14.4244 6.62781 14.4856C6.84857 16.4577 7.55459 18.3442 8.68275 19.9767L11.0002 23.324V27.125H11.8752V23.1875C11.8752 23.0985 11.848 23.0117 11.7973 22.9386L9.402 19.4788C8.45059 18.1021 7.82177 16.5287 7.56231 14.8754H8.50337L8.541 14.9813C9.01525 16.8801 9.84737 18.0425 10.9009 19.5143L11.1266 19.8306C11.2891 20.0567 11.5031 20.2411 11.7508 20.3683C11.9986 20.4956 12.273 20.5621 12.5516 20.5625H16.4632C16.7419 20.5622 17.0165 20.4955 17.2642 20.3679C17.5119 20.2403 17.7257 20.0555 17.8877 19.8288L18.1117 19.5156C19.1657 18.0434 19.9982 16.8805 20.4616 15.0194L20.5119 14.875H21.4512C21.1921 16.5283 20.5633 18.1019 19.6115 19.4784L17.2162 22.9381C17.1658 23.0116 17.1388 23.0985 17.1387 23.1875V27.125H18.0137V23.324L20.3312 19.9767C21.4596 18.3444 22.1656 16.4577 22.3861 14.4856ZM14.5011 19.6875C13.5359 19.6875 12.7511 18.9026 12.7511 17.9375C12.7511 16.9724 13.5359 16.1875 14.5011 16.1875C15.4662 16.1875 16.2511 16.9724 16.2511 17.9375C16.2511 18.9026 15.4657 19.6875 14.5011 19.6875ZM14.2696 12.1756C14.3419 12.2239 14.4268 12.2496 14.5137 12.2496C14.6006 12.2496 14.6856 12.2239 14.7579 12.1756C15.7269 11.5242 18.8887 9.20894 18.8887 6.7585C18.8887 5.57331 18.2045 4.68388 17.1029 4.43713C16.2594 4.24681 15.1976 4.49794 14.5137 5.28369C13.8299 4.49794 12.769 4.2455 11.9246 4.43713C10.823 4.68388 10.1387 5.57331 10.1387 6.7585C10.1387 9.20894 13.3006 11.5242 14.2696 12.1756ZM12.1158 5.29112C12.2386 5.26371 12.3641 5.25006 12.4899 5.25044C13.1081 5.25044 13.7884 5.56675 14.1182 6.26587C14.1536 6.34094 14.2095 6.4044 14.2795 6.44886C14.3496 6.49331 14.4308 6.51692 14.5137 6.51692C14.5967 6.51692 14.6779 6.49331 14.748 6.44886C14.818 6.4044 14.8739 6.34094 14.9092 6.26587C15.3078 5.42019 16.2187 5.1345 16.9117 5.29069C17.2433 5.3655 18.0137 5.65688 18.0137 6.7585C18.0137 8.62925 15.4649 10.6076 14.5137 11.2809C13.5626 10.6076 11.0137 8.62925 11.0137 6.7585C11.0137 5.65688 11.7842 5.3655 12.1158 5.29112ZM20.2012 7H21.9512V7.875H20.2012V7ZM7.07625 7H8.82625V7.875H7.07625V7ZM14.0762 0.875H14.9512V2.625H14.0762V0.875ZM8.94525 2.93431L9.56387 2.31569L10.8011 3.55294L10.1825 4.17156L8.94525 2.93431ZM18.2264 3.55381L19.4645 2.31656L20.0827 2.93519L18.845 4.17244L18.2264 3.55381Z" fill="#5B5B5B" stroke="#5B5B5B" stroke-width="0.2"/>
</svg>
