<svg width="21" height="20" viewBox="0 0 21 20" fill="none" xmlns="http://www.w3.org/2000/svg">
<g id="Clip path group">
<mask id="mask0_1332_6054" style="mask-type:luminance" maskUnits="userSpaceOnUse" x="0" y="0" width="21" height="20">
<g id="fluentEmojiHighContrastRaisingHands0">
<path id="Vector" d="M0.5 0H20.5V20H0.5V0Z" fill="white"/>
</g>
</mask>
<g mask="url(#mask0_1332_6054)">
<g id="Group">
<path id="Vector_2" d="M10.208 5.47L9.7211 4.1725C9.70329 4.12517 9.69725 4.07422 9.70347 4.02403C9.7097 3.97384 9.72801 3.92592 9.75684 3.88437C9.78567 3.84281 9.82415 3.80888 9.86898 3.78548C9.91381 3.76207 9.96365 3.7499 10.0142 3.75H10.9873C11.0379 3.75 11.0876 3.76225 11.1324 3.78569C11.1771 3.80914 11.2155 3.84309 11.2443 3.88462C11.273 3.92616 11.2913 3.97405 11.2975 4.02419C11.3037 4.07432 11.2976 4.12521 11.2798 4.1725L10.793 5.47C10.7706 5.5295 10.7306 5.58075 10.6783 5.61694C10.6261 5.65312 10.564 5.6725 10.5005 5.6725C10.4369 5.6725 10.3749 5.65312 10.3226 5.61694C10.2703 5.58075 10.2303 5.5295 10.208 5.47ZM12.433 5.80938L12.8611 4.49125C12.8767 4.44327 12.9038 4.39979 12.9399 4.36454C12.976 4.32928 13.0201 4.30329 13.0684 4.2888C13.1168 4.2743 13.1679 4.27173 13.2175 4.2813C13.267 4.29087 13.3135 4.3123 13.353 4.34375L14.1142 4.95C14.1537 4.98148 14.185 5.02205 14.2053 5.06824C14.2257 5.11443 14.2346 5.16488 14.2312 5.21525C14.2278 5.26562 14.2123 5.31443 14.1859 5.35749C14.1596 5.40055 14.1232 5.43658 14.0798 5.4625L12.8905 6.17375C12.8359 6.2063 12.7727 6.22145 12.7093 6.21718C12.6459 6.2129 12.5854 6.18941 12.5357 6.14983C12.486 6.11025 12.4495 6.05646 12.4312 5.99563C12.4128 5.93481 12.4135 5.86984 12.433 5.80938ZM8.13985 4.49125L8.56797 5.80938C8.58749 5.86984 8.58812 5.93481 8.56977 5.99563C8.55142 6.05646 8.51497 6.11025 8.46527 6.14983C8.41558 6.18941 8.35499 6.2129 8.2916 6.21718C8.22822 6.22145 8.16503 6.2063 8.11047 6.17375L6.9211 5.4625C6.87777 5.43658 6.84137 5.40055 6.81502 5.35749C6.78866 5.31443 6.77312 5.26562 6.76975 5.21525C6.76637 5.16488 6.77524 5.11443 6.79561 5.06824C6.81599 5.02205 6.84725 4.98148 6.88672 4.95L7.64797 4.34375C7.68744 4.3123 7.73393 4.29087 7.78348 4.2813C7.83303 4.27173 7.88416 4.2743 7.9325 4.2888C7.98084 4.30329 8.02495 4.32928 8.06106 4.36454C8.09717 4.39979 8.1242 4.44327 8.13985 4.49125ZM5.1961 19.375C3.01297 19.375 1.5086 17.55 1.14547 15.75L0.513596 11.02C0.483942 10.7978 0.499649 10.5719 0.55977 10.3559C0.619891 10.14 0.723176 9.93847 0.863383 9.76356C1.00359 9.58866 1.17781 9.44399 1.3755 9.33832C1.5732 9.23265 1.79027 9.16816 2.0136 9.14875L2.0711 9.14313V9.0625C2.07199 8.86067 2.11278 8.66101 2.19111 8.475C2.26944 8.28899 2.38378 8.1203 2.52753 7.97864C2.67129 7.83697 2.84164 7.72512 3.02878 7.64952C3.21591 7.57392 3.41615 7.53606 3.61797 7.53813C3.71797 7.53313 3.81797 7.53813 3.91672 7.55188C4.02223 7.20968 4.23782 6.91191 4.52998 6.70486C4.82214 6.4978 5.17452 6.39305 5.53235 6.40688C5.78456 6.41344 6.03129 6.48184 6.25088 6.60608C6.47047 6.73031 6.65619 6.90657 6.79172 7.11938C6.99952 7.04275 7.2218 7.0135 7.44235 7.03375C7.8466 7.07894 8.22163 7.26634 8.50047 7.5625C8.66044 7.72544 8.78295 7.92129 8.85948 8.13642C8.93601 8.35154 8.96472 8.58077 8.94359 8.80813L8.80797 10.0344C8.95672 10.0088 9.10797 9.99688 9.2586 10C9.50507 10.0105 9.74562 10.0788 9.96089 10.1993C10.1762 10.3198 10.3601 10.4892 10.498 10.6938C10.6359 10.4891 10.82 10.3197 11.0354 10.1992C11.2507 10.0787 11.4914 10.0105 11.738 10C11.8889 9.99707 12.0398 10.0086 12.1886 10.0344L12.053 8.80813C12.0319 8.58072 12.0607 8.35145 12.1373 8.13632C12.214 7.92118 12.3366 7.72536 12.4967 7.5625C12.7756 7.26639 13.1506 7.07899 13.5548 7.03375C13.7755 7.01375 13.998 7.0425 14.2055 7.11938C14.3411 6.90649 14.5269 6.73017 14.7466 6.60593C14.9663 6.48169 15.2132 6.41334 15.4655 6.40688C15.8234 6.39312 16.1758 6.49789 16.468 6.70493C16.7603 6.91196 16.976 7.20968 17.0817 7.55188C17.1805 7.5375 17.2805 7.53313 17.3805 7.53813C17.5823 7.53631 17.7824 7.57434 17.9695 7.65002C18.1565 7.7257 18.3268 7.83755 18.4706 7.97916C18.6143 8.12076 18.7287 8.28935 18.8072 8.47525C18.8857 8.66115 18.9267 8.86071 18.928 9.0625V9.14313L18.9855 9.14875C19.2087 9.16841 19.4256 9.23307 19.6232 9.33883C19.8208 9.44458 19.9949 9.58924 20.135 9.76409C20.2752 9.93894 20.3785 10.1404 20.4387 10.3562C20.4989 10.572 20.5149 10.7978 20.4855 11.02L19.8542 15.75C19.4905 17.55 17.9855 19.375 15.8017 19.375C15.0224 19.354 14.2702 19.0844 13.655 18.6056C13.0397 18.1269 12.5936 17.464 12.3817 16.7138C11.9686 15.3032 11.3327 13.9678 10.498 12.7581C9.66353 13.9679 9.0278 15.3033 8.61485 16.7138C8.4033 17.4639 7.95744 18.1268 7.34237 18.6056C6.7273 19.0844 5.97526 19.354 5.1961 19.375ZM2.16922 10.385C1.7486 10.4394 1.7386 10.7375 1.75422 10.8638L2.37922 15.5425C2.63172 16.8056 3.68797 18.125 5.1961 18.125C5.69572 18.1021 6.176 17.9251 6.57094 17.6182C6.96588 17.3114 7.2561 16.8897 7.40172 16.4113C7.84146 14.8784 8.52499 13.4263 9.4261 12.1106C9.45932 12.0696 9.48705 12.0244 9.5086 11.9763C9.7211 11.6831 10.0061 10.7994 9.23672 10.7994C8.52235 10.7994 8.20422 11.5181 7.92047 12.1606L7.91297 12.1781C7.75429 12.1534 7.61124 12.0684 7.51349 11.941C7.41574 11.8136 7.37079 11.6534 7.38797 11.4938L7.69985 8.68125V8.68C7.70144 8.66921 7.70269 8.65837 7.7036 8.6475C7.72422 8.38813 7.4286 7.99563 6.9936 7.9975C6.90672 7.9975 6.81485 8.01375 6.7186 8.04938L6.73172 8.8575H6.73485C6.7336 9.07875 6.73735 9.36688 6.74235 9.685L6.74485 9.81438C6.7536 10.3288 6.76235 10.8819 6.75047 11.26C6.74782 11.3429 6.71235 11.4213 6.65187 11.478C6.59139 11.5348 6.51085 11.5652 6.42797 11.5625C6.34509 11.5598 6.26666 11.5244 6.20993 11.4639C6.1532 11.4034 6.12282 11.3229 6.12547 11.24C6.13797 10.8775 6.1286 10.34 6.11922 9.81938L6.11797 9.695C6.1093 9.34215 6.10763 8.98917 6.11297 8.63625C6.11297 8.2675 6.10297 7.57813 5.42985 7.645C4.9186 7.695 4.89485 8.36375 4.8786 8.835L4.87547 8.9175V8.95313L4.8861 8.95813C4.88261 8.96193 4.87907 8.96568 4.87547 8.96938V11.5625C4.87547 11.6454 4.84255 11.7249 4.78394 11.7835C4.72534 11.8421 4.64585 11.875 4.56297 11.875C4.48009 11.875 4.40061 11.8421 4.342 11.7835C4.2834 11.7249 4.25047 11.6454 4.25047 11.5625V8.91438L4.2486 8.91063C3.91172 8.37813 2.71922 8.6775 2.96172 9.82188C3.01672 9.88063 3.0661 9.94125 3.10985 10.0006C3.26922 10.2175 3.40172 10.4856 3.45485 10.7344C3.5161 11.0206 3.55797 11.4656 3.58485 11.8238C3.59986 12.0267 3.61236 12.2299 3.62235 12.4331L3.62485 12.4725V12.4863C3.62782 12.5686 3.59811 12.6489 3.54219 12.7095C3.48627 12.7701 3.40867 12.8061 3.3263 12.8097C3.24393 12.8133 3.16346 12.7843 3.10243 12.7288C3.0414 12.6734 3.00475 12.5961 3.00047 12.5138V12.5013L2.9986 12.4637C2.98904 12.2657 2.97675 12.0677 2.96172 11.87C2.93485 11.5088 2.89485 11.1038 2.8436 10.865C2.82351 10.7791 2.79352 10.6958 2.75422 10.6169C2.60235 10.3813 2.38172 10.3481 2.17485 10.3888L2.16922 10.385ZM18.8298 10.385L18.8236 10.3888C18.6173 10.3475 18.3961 10.3813 18.2442 10.6169C18.2017 10.7044 18.1711 10.7906 18.1548 10.865C18.1036 11.1038 18.0642 11.5088 18.0367 11.87C18.0222 12.0678 18.0101 12.2657 18.0005 12.4637L17.9986 12.5013L17.998 12.5138C17.9962 12.5548 17.9863 12.5951 17.9689 12.6323C17.9515 12.6695 17.927 12.703 17.8967 12.7307C17.8664 12.7584 17.831 12.7799 17.7924 12.794C17.7537 12.808 17.7128 12.8143 17.6717 12.8125C17.6307 12.8107 17.5904 12.8008 17.5532 12.7835C17.516 12.7661 17.4825 12.7415 17.4548 12.7112C17.427 12.681 17.4055 12.6455 17.3915 12.6069C17.3775 12.5683 17.3712 12.5273 17.373 12.4863L17.3736 12.4725L17.3755 12.4331C17.385 12.2298 17.3975 12.0267 17.413 11.8238C17.4405 11.4656 17.4817 11.0206 17.5436 10.7344C17.5967 10.4856 17.7292 10.2175 17.8886 10.0006C17.9323 9.94125 17.9823 9.88063 18.0367 9.82188C18.2798 8.67813 17.0867 8.37813 16.7492 8.91063L16.748 8.91438V11.5625C16.748 11.6454 16.715 11.7249 16.6564 11.7835C16.5978 11.8421 16.5184 11.875 16.4355 11.875C16.3526 11.875 16.2731 11.8421 16.2145 11.7835C16.1559 11.7249 16.123 11.6454 16.123 11.5625V8.96875C16.1192 8.96527 16.1154 8.96173 16.1117 8.95813L16.1223 8.95313V8.9175L16.1192 8.835C16.103 8.36375 16.0798 7.69563 15.568 7.645C14.8948 7.57813 14.8848 8.2675 14.8842 8.63625C14.8923 8.905 14.8861 9.29875 14.8798 9.695L14.878 9.81938C14.8659 10.2928 14.8638 10.7665 14.8717 11.24C14.8744 11.3229 14.844 11.4034 14.7873 11.4639C14.7305 11.5244 14.6521 11.5598 14.5692 11.5625C14.4863 11.5652 14.4058 11.5348 14.3453 11.478C14.2848 11.4213 14.2494 11.3429 14.2467 11.26C14.2386 10.7781 14.2406 10.2962 14.253 9.81438L14.2548 9.685C14.2598 9.36688 14.2636 9.07875 14.263 8.8575H14.2655L14.2792 8.04938C14.1911 8.01596 14.0978 7.9984 14.0036 7.9975C13.568 7.99563 13.273 8.38875 13.2936 8.6475C13.2943 8.65836 13.2953 8.6692 13.2967 8.68V8.68125L13.6092 11.4938C13.6264 11.6534 13.5815 11.8136 13.4837 11.941C13.386 12.0684 13.2429 12.1534 13.0842 12.1781L13.0761 12.1613C12.7923 11.5181 12.4748 10.7988 11.7598 10.7988C10.9898 10.7988 11.2755 11.6831 11.4873 11.9763C11.5092 12.0238 11.5373 12.0694 11.5705 12.1106C12.4718 13.4263 13.1556 14.8784 13.5955 16.4113C13.7412 16.8898 14.0315 17.3114 14.4266 17.6183C14.8216 17.9252 15.302 18.1022 15.8017 18.125C17.3105 18.125 18.3673 16.8056 18.6198 15.5425L19.2448 10.8638C19.2605 10.7375 19.2505 10.4394 18.8298 10.385Z" fill="white"/>
</g>
</g>
</g>
</svg>
